<svg width="485" height="503" viewBox="0 0 485 503" fill="none" xmlns="http://www.w3.org/2000/svg">
<g filter="url(#filter0_d_221_16)">
<g filter="url(#filter1_d_221_16)">
<path d="M32.8 394H30.8V396H32.8V394ZM32.8 132.4V130.4H30.8V132.4H32.8ZM80 132.4H82V130.4H80V132.4ZM80 251.2H78V253.2H80V251.2ZM81.2 251.2V253.2H82.173L82.7736 252.434L81.2 251.2ZM174.4 132.4V130.4H173.427L172.826 131.166L174.4 132.4ZM226.4 132.4L227.966 133.644L230.542 130.4H226.4V132.4ZM80 316.8L78.4336 315.556L78 316.103V316.8H80ZM80 394V396H82V394H80ZM183.2 394L181.433 394.937L181.996 396H183.2V394ZM112.4 260.4L110.806 259.192L110.035 260.209L110.633 261.336L112.4 260.4ZM140 224L141.747 223.026L140.256 220.352L138.406 222.792L140 224ZM234.8 394V396H238.205L236.547 393.026L234.8 394ZM34.8 394V132.4H30.8V394H34.8ZM32.8 134.4H80V130.4H32.8V134.4ZM78 132.4V251.2H82V132.4H78ZM80 253.2H81.2V249.2H80V253.2ZM82.7736 252.434L175.974 133.634L172.826 131.166L79.6264 249.966L82.7736 252.434ZM174.4 134.4H226.4V130.4H174.4V134.4ZM224.834 131.156L78.4336 315.556L81.5664 318.044L227.966 133.644L224.834 131.156ZM78 316.8V394H82V316.8H78ZM80 392H32.8V396H80V392ZM184.967 393.063L114.167 259.463L110.633 261.336L181.433 394.937L184.967 393.063ZM113.994 261.608L141.594 225.208L138.406 222.792L110.806 259.192L113.994 261.608ZM138.253 224.974L233.053 394.974L236.547 393.026L141.747 223.026L138.253 224.974ZM234.8 392H183.2V396H234.8V392ZM335.444 390L334.677 391.847L334.689 391.852L335.444 390ZM297.844 364L296.379 365.362L296.388 365.371L296.396 365.38L297.844 364ZM272.644 321.6L270.756 322.259L270.76 322.273L270.765 322.286L272.644 321.6ZM279.444 190.8L277.669 189.878L277.664 189.887L279.444 190.8ZM322.644 144L323.658 145.724L323.665 145.719L322.644 144ZM428.244 137.6L427.32 139.374L427.32 139.374L428.244 137.6ZM459.444 160.4L460.939 161.729L462.152 160.364L460.903 159.032L459.444 160.4ZM433.844 189.2L432.401 190.585L433.9 192.147L435.339 190.529L433.844 189.2ZM346.244 179.6L347.372 181.252L347.38 181.246L346.244 179.6ZM320.644 314L318.804 314.784L318.804 314.784L320.644 314ZM346.644 347.2L345.507 348.846L345.521 348.855L345.534 348.864L346.644 347.2ZM415.044 351.6L415.982 353.366L416.003 353.355L416.024 353.343L415.044 351.6ZM439.044 332.4L440.529 331.061L439.069 329.441L437.582 331.035L439.044 332.4ZM464.644 360.8L466.169 362.093L467.3 360.76L466.129 359.461L464.644 360.8ZM428.244 389.2L429.082 391.016L429.096 391.009L429.11 391.003L428.244 389.2ZM381.444 396.8C365.424 396.8 350.348 393.912 336.198 388.148L334.689 391.852C349.34 397.821 364.931 400.8 381.444 400.8V396.8ZM336.211 388.153C322.343 382.397 310.04 373.892 299.291 362.62L296.396 365.38C307.515 377.041 320.278 385.87 334.677 391.847L336.211 388.153ZM299.308 362.638C288.847 351.392 280.577 337.499 274.522 320.914L270.765 322.286C276.977 339.301 285.507 353.674 296.379 365.362L299.308 362.638ZM274.532 320.941C268.753 304.392 265.844 285.422 265.844 264H261.844C261.844 285.778 264.801 305.208 270.756 322.259L274.532 320.941ZM265.844 264C265.844 235.706 271 211.635 281.223 191.713L277.664 189.887C267.087 210.498 261.844 235.228 261.844 264H265.844ZM281.219 191.722C291.73 171.488 305.88 156.181 323.658 145.724L321.63 142.276C303.141 153.152 288.491 169.046 277.669 189.878L281.219 191.722ZM323.665 145.719C341.734 134.983 362.043 129.6 384.644 129.6V125.6C361.378 125.6 340.353 131.15 321.622 142.281L323.665 145.719ZM384.644 129.6C400.63 129.6 414.84 132.874 427.32 139.374L429.168 135.826C416.048 128.993 401.191 125.6 384.644 125.6V129.6ZM427.32 139.374C439.965 145.96 450.17 153.432 457.985 161.768L460.903 159.032C452.717 150.301 442.123 142.574 429.168 135.826L427.32 139.374ZM457.949 159.071L432.349 187.871L435.339 190.529L460.939 161.729L457.949 159.071ZM435.287 187.815C428.724 180.979 421.324 175.63 413.09 171.788L411.398 175.412C419.164 179.036 426.164 184.088 432.401 190.585L435.287 187.815ZM413.09 171.788C404.782 167.911 395.284 166 384.644 166V170C394.803 170 403.706 171.823 411.398 175.412L413.09 171.788ZM384.644 166C369.863 166 356.661 169.976 345.107 177.954L347.38 181.246C358.226 173.757 370.625 170 384.644 170V166ZM345.116 177.948C333.823 185.661 325.068 196.782 318.809 211.204L322.478 212.796C328.487 198.951 336.798 188.473 347.372 181.252L345.116 177.948ZM318.809 211.204C312.541 225.648 309.444 242.867 309.444 262.8H313.444C313.444 243.267 316.48 226.618 322.478 212.796L318.809 211.204ZM309.444 262.8C309.444 282.735 312.541 300.08 318.804 314.784L322.484 313.216C316.48 299.12 313.444 282.332 313.444 262.8H309.444ZM318.804 314.784C325.063 329.478 333.951 340.867 345.507 348.846L347.78 345.554C336.936 338.067 328.492 327.322 322.484 313.216L318.804 314.784ZM345.534 348.864C357.098 356.573 370.56 360.4 385.844 360.4V356.4C371.26 356.4 358.589 352.76 347.753 345.536L345.534 348.864ZM385.844 360.4C397.061 360.4 407.124 358.072 415.982 353.366L414.105 349.834C405.897 354.194 396.493 356.4 385.844 356.4V360.4ZM416.024 353.343C424.756 348.431 432.915 341.897 440.506 333.765L437.582 331.035C430.239 338.903 422.398 345.169 414.063 349.857L416.024 353.343ZM437.558 333.739L463.158 362.139L466.129 359.461L440.529 331.061L437.558 333.739ZM463.118 359.507C452.891 371.569 440.979 380.858 427.377 387.397L429.11 391.003C443.241 384.209 455.596 374.564 466.169 362.093L463.118 359.507ZM427.406 387.384C413.835 393.647 398.527 396.8 381.444 396.8V400.8C399.027 400.8 414.919 397.553 429.082 391.016L427.406 387.384Z" fill="white"/>
</g>
</g>
<defs>
<filter id="filter0_d_221_16" x="28.8" y="127.6" width="439.844" height="279.2" filterUnits="userSpaceOnUse" color-interpolation-filters="sRGB">
<feFlood flood-opacity="0" result="BackgroundImageFix"/>
<feColorMatrix in="SourceAlpha" type="matrix" values="0 0 0 0 0 0 0 0 0 0 0 0 0 0 0 0 0 0 127 0" result="hardAlpha"/>
<feOffset dy="4"/>
<feGaussianBlur stdDeviation="2"/>
<feComposite in2="hardAlpha" operator="out"/>
<feColorMatrix type="matrix" values="0 0 0 0 0 0 0 0 0 0 0 0 0 0 0 0 0 0 0.25 0"/>
<feBlend mode="normal" in2="BackgroundImageFix" result="effect1_dropShadow_221_16"/>
<feBlend mode="normal" in="SourceGraphic" in2="effect1_dropShadow_221_16" result="shape"/>
</filter>
<filter id="filter1_d_221_16" x="32.8" y="127.6" width="451.844" height="291.2" filterUnits="userSpaceOnUse" color-interpolation-filters="sRGB">
<feFlood flood-opacity="0" result="BackgroundImageFix"/>
<feColorMatrix in="SourceAlpha" type="matrix" values="0 0 0 0 0 0 0 0 0 0 0 0 0 0 0 0 0 0 127 0" result="hardAlpha"/>
<feOffset dx="20" dy="20"/>
<feComposite in2="hardAlpha" operator="out"/>
<feColorMatrix type="matrix" values="0 0 0 0 0.94902 0 0 0 0 0.466667 0 0 0 0 0.466667 0 0 0 0.7 0"/>
<feBlend mode="normal" in2="BackgroundImageFix" result="effect1_dropShadow_221_16"/>
<feBlend mode="normal" in="SourceGraphic" in2="effect1_dropShadow_221_16" result="shape"/>
</filter>
</defs>
</svg>
